<svg xmlns="http://www.w3.org/2000/svg" xmlns:xlink="http://www.w3.org/1999/xlink" width="381.568" height="79.663" viewBox="0 0 381.568 79.663">
  <defs>
    <clipPath id="clip-path">
      <rect id="Rectangle_3" data-name="Rectangle 3" width="381.568" height="79.663" fill="#a08629"/>
    </clipPath>
  </defs>
  <g id="Group_3" data-name="Group 3" clip-path="url(#clip-path)">
    <path id="Path_2" data-name="Path 2" d="M39.831,0A39.831,39.831,0,1,0,79.664,39.831,39.83,39.83,0,0,0,39.831,0m0,77.865A38.039,38.039,0,1,1,77.87,39.826,38.039,38.039,0,0,1,39.831,77.865" transform="translate(0.001)" fill="#a08629"/>
    <path id="Path_3" data-name="Path 3" d="M120.446,57.028c-3.525-.116-5.024-.116-10.968-.116H96.142c-4.907,0-6.58,0-8.774.116V55.354A6.9,6.9,0,0,0,91,54.718a3.03,3.03,0,0,0,1.789-2.655,30.939,30.939,0,0,0,.059-3.4V26.665c0-3.638,0-3.81-.4-4.676-.636-1.385-1.849-1.909-5.08-2.021V18.293c4.04.173,6.119.231,8.946.231,2.887,0,4.966-.059,9.121-.231v1.674a7.592,7.592,0,0,0-3.638.634,3.033,3.033,0,0,0-1.789,2.654,31.765,31.765,0,0,0-.059,3.465V47.1c0,4.156.347,5.716,1.616,6.756,1.154.924,3.117,1.322,6.869,1.322,4.156,0,6.638-.695,8.486-2.426,1.156-1.038,1.674-2.309,2.482-5.657h1.5Z" transform="translate(10.652 2.23)" fill="#a08629"/>
    <path id="Path_4" data-name="Path 4" d="M143.929,50.9c-2.022,3.525-5.716,5.37-10.566,5.37-8.078,0-13.681-5.2-13.681-12.7a13.643,13.643,0,0,1,13.911-13.8c6.119,0,10.852,4.215,10.852,9.642,0,1.1,0,1.1-2.713,1.1H126.725c-.059.924-.059,1.616-.059,2.137,0,6.581,3.525,11.025,8.717,11.025,2.829,0,4.847-1.154,6.928-3.926Zm-8.078-12.3c2.193-.116,2.193-.116,2.193-1.322,0-3.579-1.962-5.945-4.964-5.945-3.291,0-5.368,2.482-6.119,7.273Z" transform="translate(14.591 3.629)" fill="#a08629"/>
    <path id="Path_5" data-name="Path 5" d="M171.734,46.326c0,6.928.577,8.141,3.81,8.141a6.077,6.077,0,0,0,.867-.059v1.5a45.931,45.931,0,0,1-4.735.981c-1.789.347-2.25.461-4.5.924-.52-1.964-.577-2.253-.981-4.156a10.228,10.228,0,0,1-8.6,4.156A12.337,12.337,0,0,1,145,44.941c0-7.736,5.484-13.624,12.757-13.624a11.162,11.162,0,0,1,7.793,3V25.256c0-3.406-.116-3.81-.981-4.5a4.286,4.286,0,0,0-2.887-.634h-.576v-1.56a44.144,44.144,0,0,0,10.281-1.5h.347Zm-6,0c-.059-1.442-.059-2.482-.059-2.713,0-4.964-.231-6.351-1.322-7.793a6.431,6.431,0,0,0-5.14-2.484c-4.5,0-7.158,4.272-7.158,11.488,0,6.812,2.655,10.912,7.1,10.912a6.7,6.7,0,0,0,5.311-2.6c.924-1.27,1.27-2.714,1.27-5.543Z" transform="translate(17.675 2.079)" fill="#a08629"/>
    <path id="Path_6" data-name="Path 6" d="M198.88,50.9c-2.019,3.525-5.715,5.37-10.563,5.37-8.078,0-13.682-5.2-13.682-12.7a13.643,13.643,0,0,1,13.911-13.8c6.119,0,10.854,4.215,10.854,9.642,0,1.1,0,1.1-2.713,1.1H181.679c-.059.924-.059,1.616-.059,2.137,0,6.581,3.525,11.025,8.717,11.025,2.83,0,4.847-1.154,6.928-3.926ZM190.8,38.6C193,38.484,193,38.484,193,37.278c0-3.579-1.964-5.945-4.966-5.945-3.29,0-5.368,2.482-6.119,7.273Z" transform="translate(21.292 3.629)" fill="#a08629"/>
    <path id="Path_7" data-name="Path 7" d="M208.648,29.407a25.51,25.51,0,0,1,.751,5.831c2.135-3.463,4.734-5.08,8.023-5.08,2.829,0,4.734,1.444,4.734,3.579a2.644,2.644,0,0,1-2.713,2.713A2.818,2.818,0,0,1,216.9,34.66c-.692-1.322-.981-1.56-2.019-1.56a4.938,4.938,0,0,0-4.155,2.937,13.927,13.927,0,0,0-.924,6.235v6.58c0,3.754.057,3.985,1.212,4.62a7.439,7.439,0,0,0,3.231.634v1.56c-2.655-.173-4.156-.231-7.39-.231-3.288,0-4.847.057-7.677.231V54.115a6.657,6.657,0,0,0,3.525-.808c.867-.577.924-.924.924-4.446V37.893c0-2.655-.294-3.752-1.212-4.33-.577-.4-1.038-.52-3.231-.577V31.428a33.577,33.577,0,0,0,9.063-2.021Z" transform="translate(24.285 3.586)" fill="#a08629"/>
    <path id="Path_8" data-name="Path 8" d="M230.491,36.051a10.04,10.04,0,0,1,9.006-4.734c3.291,0,5.889,1.1,7.216,2.937,1.038,1.5,1.385,2.937,1.385,6.292V50.36c0,3.7.059,3.985,1.212,4.619a7.422,7.422,0,0,0,3.231.634v1.56c-2.6-.173-4.1-.231-7.158-.231-3.29,0-4.907.059-7.909.231V55.619A6.646,6.646,0,0,0,241,54.813c.867-.577.924-.924.924-4.446V41.129c0-5.079-1.385-7.158-4.734-7.158a6.609,6.609,0,0,0-4.792,2.135c-1.385,1.56-1.909,3.465-1.909,7.05v7.216c0,3.752.059,3.985,1.213,4.619a7.423,7.423,0,0,0,3.231.634v1.56c-2.713-.173-4.215-.231-7.505-.231s-4.791.059-7.562.231V55.619a6.653,6.653,0,0,0,3.525-.806c.865-.577.924-.924.924-4.446V25.256c0-3.406-.115-3.81-.981-4.5a4.283,4.283,0,0,0-2.886-.634h-.577V18.56a42.866,42.866,0,0,0,10.219-1.5h.4Z" transform="translate(26.807 2.079)" fill="#a08629"/>
    <path id="Path_9" data-name="Path 9" d="M281.854,53.713c-3.347.634-3.579.692-9.582,2.193a46.033,46.033,0,0,1-1.04-5.2,10.721,10.721,0,0,1-9.814,5.486,7.5,7.5,0,0,1-6.349-2.714c-.981-1.442-1.322-3.175-1.322-6.638V37.149c0-3.752-.057-3.983-1.213-4.618A7.621,7.621,0,0,0,249.3,31.9V30.333c2.078.173,3.118.231,4.907.231,1.616,0,3-.059,5.715-.231V46.324a12.956,12.956,0,0,0,.809,5.079A3.927,3.927,0,0,0,264.2,53.25a7.217,7.217,0,0,0,6.061-3.81c.752-1.558.981-3.29.981-7.5V37.145c0-3.752-.059-3.983-1.212-4.618a7.637,7.637,0,0,0-3.231-.636V30.333c2.078.173,3.119.231,4.847.231,1.558,0,2.937-.059,5.772-.231v16.8c0,4.388.461,5.2,2.886,5.2a5.647,5.647,0,0,0,1.269-.116Z" transform="translate(30.398 3.698)" fill="#a08629"/>
    <path id="Path_10" data-name="Path 10" d="M281.118,47.033h1.5c1.56,5.486,3.525,7.5,7.216,7.5,2.539,0,4.33-1.5,4.33-3.7,0-1.846-.867-2.829-4.272-4.847l-3.117-1.846c-3.638-2.137-4.964-4.042-4.964-7.216a7,7,0,0,1,7.158-7.216,11.33,11.33,0,0,1,5.888,1.674l1.56-1.444h.924v7.674h-1.56a11.054,11.054,0,0,0-1.557-3.81,5.527,5.527,0,0,0-4.5-2.366,2.9,2.9,0,0,0-3.231,2.771c0,1.5.924,2.482,3.525,3.983l3.752,2.021c4.04,2.252,5.6,4.5,5.6,7.909,0,4.792-3.636,8.139-8.665,8.139a10.066,10.066,0,0,1-6.818-2.2l-1.27,1.442h-1.5Z" transform="translate(34.274 3.624)" fill="#a08629"/>
    <path id="Path_11" data-name="Path 11" d="M324.931,50.9c-2.021,3.525-5.715,5.37-10.564,5.37-8.078,0-13.681-5.2-13.681-12.7a13.643,13.643,0,0,1,13.911-13.8c6.118,0,10.852,4.215,10.852,9.642,0,1.1,0,1.1-2.713,1.1h-15.01c-.057.924-.057,1.616-.057,2.137,0,6.581,3.525,11.025,8.717,11.025,2.829,0,4.847-1.154,6.928-3.926Zm-8.078-12.3c2.193-.116,2.193-.116,2.193-1.322,0-3.579-1.961-5.945-4.963-5.945-3.29,0-5.368,2.482-6.12,7.273Z" transform="translate(36.661 3.629)" fill="#a08629"/>
    <path id="Path_12" data-name="Path 12" d="M341.956,53.072a7.214,7.214,0,0,1-7.1,3.869,6.937,6.937,0,0,1-5.484-1.909c-1.153-1.442-1.322-2.251-1.322-6.408V33.1h-3.175V31.776a13.387,13.387,0,0,0,7.62-7.562h1.732V31.2h6.462V33.11h-6.462V46.272a37.42,37.42,0,0,0,.232,5.888A2.644,2.644,0,0,0,337,54.528c1.213,0,2.135-.634,3.7-2.541Z" transform="translate(39.61 2.954)" fill="#a08629"/>
  </g>
</svg>
